<?xml version="1.0" encoding="UTF-8" standalone="no"?>
<!DOCTYPE svg PUBLIC "-//W3C//DTD SVG 1.1//EN" "http://www.w3.org/Graphics/SVG/1.1/DTD/svg11.dtd">
<svg t="1508973751868" class="icon" style="" viewBox="0 0 1024 1024" version="1.1" xmlns="http://www.w3.org/2000/svg" p-id="13775" xmlns:xlink="http://www.w3.org/1999/xlink" width="64" height="64"><defs><style type="text/css"/></defs><path d="M512 45.176471C769.415532 45.176471 978.823532 254.584471 978.823532 512 978.823532 769.415532 769.415532 978.823532 512 978.823532 254.584471 978.823532 45.176471 769.415532 45.176471 512 45.176471 254.584471 254.584471 45.176471 512 45.176471L512 45.176471ZM512 0C229.225412 0 0 229.225412 0 512 0 794.774589 229.225412 1024 512 1024 794.774589 1024 1024 794.774589 1024 512 1024 229.225412 794.774589 0 512 0L512 0 512 0ZM428.790635 522.24C469.750635 588.076052 667.718359 440.32 667.718359 440.32 681.600067 440.32 716.039419 443.805377 721.905388 456.403934 727.768207 469.031869 725.772667 484.037246 716.809518 494.639213L393.965189 889.502428C386.974501 897.789901 376.975812 902.449311 366.385386 902.449311 360.153255 902.449311 354.026042 900.834621 348.680468 897.760522 333.757976 889.327212 326.90473 871.326428 332.477976 855.01377L592.630625 562.385859C592.630625 562.385859 348.680467 604.15998 305.910632 562.385843 263.140796 520.611702 592.630625 112.64 592.630625 112.64 612.492657 112.64 674.550625 133.821902 674.550625 153.600001 674.550625 161.157246 672.188923 168.424919 667.718364 174.585705 667.718364 174.585705 387.830635 456.403945 428.790635 522.24Z" p-id="13776" fill="#e52522"/></svg>