<?xml version="1.0" encoding="UTF-8" standalone="no"?>
<!DOCTYPE svg PUBLIC "-//W3C//DTD SVG 1.1//EN" "http://www.w3.org/Graphics/SVG/1.1/DTD/svg11.dtd">
<svg t="1508975336989" class="icon" style="" viewBox="0 0 1024 1024" version="1.1" xmlns="http://www.w3.org/2000/svg" p-id="19047" xmlns:xlink="http://www.w3.org/1999/xlink" width="64" height="64"><defs><style type="text/css"/></defs><path d="M891.58656 723.84 852.68992 723.84 852.08064 763.37664 813.79328 763.37664 813.79328 802.91328 852.68992 802.91328 852.68992 842.4448 891.58656 842.4448 891.58656 802.91328 930.48832 802.91328 930.48832 763.37664 891.58656 763.37664Z" p-id="19048" fill="#e52522"/><path d="M512.32768 51.72736c-252.42624 0-457.05728 207.98464-457.05728 464.54272 0 256.5632 204.63104 464.54784 457.05728 464.54784 241.20832 0 320.91648-138.37312 320.91648-138.37312l0-19.76832-38.89664 0 0-79.07328 38.89664 0 0-39.53664 58.34752 0 38.89664 0c0 0 38.89664-99.16928 38.89664-187.79648C969.38496 259.712 764.75392 51.72736 512.32768 51.72736zM321.54624 297.3952c51.54816 0 93.34272 42.30656 93.34272 94.42304 0 52.1216-41.79456 94.38208-93.34272 94.38208-51.59424 0-93.30176-42.26048-93.30176-94.38208C228.2496 339.70176 269.952 297.3952 321.54624 297.3952zM442.35264 715.20768 201.73312 715.20768c-13.696 0-22.14912-10.9568-18.75968-24.36096 0 0 0.45568-3.39968 1.99168-9.08288 8.38144-36.28544 28.36992-108.4672 41.2672-127.19104 24.09472-35.0464 66.2528-33.54112 66.2528-33.54112l45.30688 0c0 0 56.95488-1.75104 76.93824 35.28704 14.86848 18.9184 37.55008 96.64 45.13792 129.44896L460.8 690.9184C464.3584 704.30208 456.0896 715.20768 442.35264 715.20768zM825.92768 616.5504c0 4.54144-3.74784 8.28416-8.1408 8.28416l-236.39552 0c-4.49536 0-8.1664-3.74272-8.1664-8.28416l0-12.60544c0-4.56704 3.67104-8.25344 8.1664-8.25344l236.39552 0c4.39296 0 8.1408 3.69152 8.1408 8.25344L825.92768 616.5504zM825.92768 512.62464c0 4.54656-3.74784 8.25856-8.1408 8.25856l-236.39552 0c-4.49536 0-8.1664-3.712-8.1664-8.25856L573.22496 500.0192c0-4.54144 3.67104-8.25856 8.1664-8.25856l236.39552 0c4.39296 0 8.1408 3.71712 8.1408 8.25856L825.92768 512.62464zM825.92768 408.72448c0 4.51584-3.74784 8.23296-8.1408 8.23296l-236.39552 0c-4.49536 0-8.1664-3.71712-8.1664-8.23296l0-12.63104c0-4.53632 3.67104-8.25344 8.1664-8.25344l236.39552 0c4.39296 0 8.1408 3.71712 8.1408 8.25344L825.92768 408.72448z" p-id="19049" fill="#e52522"/></svg>