<?xml version="1.0" encoding="UTF-8" standalone="no"?>
<!DOCTYPE svg PUBLIC "-//W3C//DTD SVG 1.1//EN" "http://www.w3.org/Graphics/SVG/1.1/DTD/svg11.dtd">
<svg t="1508975177932" class="icon" style="" viewBox="0 0 1024 1024" version="1.1" xmlns="http://www.w3.org/2000/svg" p-id="14742" xmlns:xlink="http://www.w3.org/1999/xlink" width="64" height="64"><defs><style type="text/css"/></defs><path d="M506.194 33.01C241.434 36.548 29.623 254.073 33.161 518.882c3.538 264.625 221.078 476.484 485.843 472.923 264.76-3.545 476.57-221.059 473.028-485.868-3.495-264.67-221.078-476.466-485.838-472.927z m53.152 159.791c48.723 0 63.105 28.237 63.105 60.586 0 40.41-32.378 77.76-87.558 77.76-46.169 0-68.13-23.241-66.831-61.595 0.025-32.349 27.127-76.751 91.284-76.751zM434.367 812.063c-33.315 0-57.701-20.226-34.41-109.125l38.199-157.596c6.622-25.273 7.718-35.391 0-35.391-9.953 0-53.221 17.464-78.793 34.656l-16.623-27.252c81.057-67.653 174.228-107.353 214.166-107.353 33.285 0 38.808 39.406 22.184 99.997l-43.759 165.715c-7.714 29.298-4.393 39.405 3.33 39.405 9.963 0 42.745-12.097 74.931-37.417l18.814 25.272c-78.745 78.748-164.681 109.089-198.039 109.089z" p-id="14743" fill="#e52522"/></svg>