<?xml version="1.0" encoding="utf-8"?>
<!-- Generator: Adobe Illustrator 19.1.0, SVG Export Plug-In . SVG Version: 6.00 Build 0)  -->
<svg version="1.1" id="Layer_1" xmlns="http://www.w3.org/2000/svg" xmlns:xlink="http://www.w3.org/1999/xlink" x="0px" y="0px"
	 viewBox="-364 218 210 756" style="enable-background:new -364 218 210 756;" xml:space="preserve">
	<defs>
    <linearGradient y1="0" x1="0" y2="1" x2="0"  id="style_1">
      <stop stop-color="#ff002a" offset="0"/>
      <stop stop-color="#ff1398" offset="1"/>
    </linearGradient>
        <linearGradient y1="0" x1="0" y2="1" x2="0"  id="style_2">
      <stop stop-color="#16d5b8" offset="0"/>
      <stop stop-color="#64f913" offset="1"/>
    </linearGradient>
            <linearGradient y1="0" x1="0" y2="1" x2="0"  id="style_3">
      <stop stop-color="#1075f2" offset="0"/>
      <stop stop-color="#07e5ed" offset="1"/>
    </linearGradient>
            <linearGradient y1="0" x1="0" y2="1" x2="0"  id="style_4">
      <stop stop-color="#6b49fd" offset="0"/>
      <stop stop-color="#c560fa" offset="1"/>
    </linearGradient>
            <linearGradient y1="0" x1="0" y2="1" x2="0"  id="style_5">
      <stop stop-color="#ff8d1e" offset="0"/>
      <stop stop-color="#feea40" offset="1"/>
    </linearGradient>
                    <linearGradient y1="0" x1="0" y2="1" x2="0"  id="style_6">
      <stop stop-color="#a1a1a1" offset="0"/>
      <stop stop-color="#cecece" offset="1"/>
    </linearGradient>
        <path id="defs"  width="126px" x="0" y="0"  d="M-154.2,253.9c-1.9,0-3.5-1.6-3.5-3.5s1.6-3.5,3.5-3.5c0.1,0,0.2,0,0.2,0v-5.3c-0.1,0-0.2,0-0.2,0c-1.9,0-3.5-1.6-3.5-3.5
        s1.6-3.5,3.5-3.5c0.1,0,0.2,0,0.2,0V218h-199.5c-5.5,0-10.5,4.7-10.5,10.2v106c0,5.5,5,9.8,10.5,9.8H-154v-16.4c-0.1,0-0.2,0-0.2,0
        c-1.9,0-3.5-1.6-3.5-3.5s1.6-3.5,3.5-3.5c0.1,0,0.2,0,0.2,0v-5.3c-0.1,0-0.2,0-0.2,0c-1.9,0-3.5-1.6-3.5-3.5s1.6-3.5,3.5-3.5
        c0.1,0,0.2,0,0.2,0V303c-0.1,0-0.2,0-0.2,0c-1.9,0-3.5-1.6-3.5-3.5s1.6-3.5,3.5-3.5c0.1,0,0.2,0,0.2,0v-5.3c-0.1,0-0.2,0-0.2,0
        c-1.9,0-3.5-1.6-3.5-3.5s1.6-3.5,3.5-3.5c0.1,0,0.2,0,0.2,0v-5.3c-0.1,0-0.2,0-0.2,0c-1.9,0-3.5-1.6-3.5-3.5s1.6-3.5,3.5-3.5
        c0.1,0,0.2,0,0.2,0v-5.3c-0.1,0-0.2,0-0.2,0c-1.9,0-3.5-1.6-3.5-3.5s1.6-3.5,3.5-3.5c0.1,0,0.2,0,0.2,0v-5.3
        C-154.1,253.9-154.2,253.9-154.2,253.9z"/>
  </defs>
<use id="one" x="0" y="0" xlink:href="#defs" fill="url(#style_1)" />
<use id="one" x="0" y="126" xlink:href="#defs" fill="url(#style_2)" />
<use id="one" x="0" y="252" xlink:href="#defs" fill="url(#style_3)"/>
<use id="one" x="0" y="378" xlink:href="#defs" fill="url(#style_4)"/>
 <use id="one" x="0" y="504" xlink:href="#defs" fill="url(#style_5)"/>
 <use id="one" x="0" y="630" xlink:href="#defs" fill="url(#style_6)"/>
</svg>

