<?xml version="1.0" encoding="UTF-8" standalone="no"?>
<!DOCTYPE svg PUBLIC "-//W3C//DTD SVG 1.1//EN" "http://www.w3.org/Graphics/SVG/1.1/DTD/svg11.dtd">
<svg t="1508973783592" class="icon" style="" viewBox="0 0 1031 1024" version="1.1" xmlns="http://www.w3.org/2000/svg" p-id="13949" xmlns:xlink="http://www.w3.org/1999/xlink" width="64.4375" height="64"><defs><style type="text/css"/></defs><path d="M444.8 1024c-25.6 0-51.2-6.4-70.4-25.6L28.8 652.8c-38.4-38.4-38.4-102.4 0-140.8L515.2 32C553.6-6.4 617.6-6.4 656 32l345.6 345.6c38.4 38.4 38.4 102.4 0 140.8l-38.4 38.4c-12.8 12.8-32 12.8-44.8 0s-12.8-32 0-44.8l38.4-38.4c12.8-12.8 12.8-38.4 0-51.2l-352-345.6c-12.8-12.8-32-12.8-51.2 0L80 556.8c-12.8 12.8-12.8 38.4 0 51.2l345.6 345.6c12.8 12.8 32 12.8 51.2 0l32-32c12.8-12.8 32-12.8 44.8 0s12.8 32 0 44.8L515.2 992c-19.2 19.2-44.8 32-70.4 32z" fill="#e52522" p-id="13950"/><path d="M137.6 742.4c-6.4 0-19.2 0-25.6-6.4-12.8-12.8-12.8-32 0-44.8l576-576c12.8-12.8 32-12.8 44.8 0s12.8 32 0 44.8l-576 576c0 6.4-6.4 6.4-19.2 6.4zM406.4 787.2c-6.4 0-19.2 0-25.6-6.4-12.8-12.8-12.8-32 0-44.8l64-64c12.8-12.8 32-12.8 44.8 0 12.8 12.8 12.8 32 0 44.8l-64 64s-12.8 6.4-19.2 6.4zM995.2 864h-320c-19.2 0-32-12.8-32-32s12.8-32 32-32h320c19.2 0 32 12.8 32 32s-12.8 32-32 32z" fill="#e52522" p-id="13951"/><path d="M835.2 1024c-19.2 0-32-12.8-32-32V672c0-19.2 12.8-32 32-32s32 12.8 32 32v320c0 19.2-12.8 32-32 32z" fill="#e52522" p-id="13952"/></svg>