<?xml version="1.0" encoding="UTF-8" standalone="no"?>
<!DOCTYPE svg PUBLIC "-//W3C//DTD SVG 1.1//EN" "http://www.w3.org/Graphics/SVG/1.1/DTD/svg11.dtd">
<svg t="1508973631291" class="icon" style="" viewBox="0 0 1024 1024" version="1.1" xmlns="http://www.w3.org/2000/svg" p-id="12846" xmlns:xlink="http://www.w3.org/1999/xlink" width="64" height="64"><defs><style type="text/css"/></defs><path d="M870.0928 632.7808l77.312-2.56-1.4336 4.9152a461.056 461.056 0 0 1-441.7024 329.1136 460.8 460.8 0 0 1-460.8-460.8c0-205.1584 135.424-384 329.1136-441.7024l4.9152-1.4336V136.704C221.184 192 116.3264 337.7664 116.3264 503.4496a387.9424 387.9424 0 0 0 753.7664 129.3312zM573.44 434.432h312.6272A388.352 388.352 0 0 0 573.44 121.7024v312.7296zM500.4288 42.6496h3.84a460.8 460.8 0 0 1 460.8 460.8v3.84H500.4288V42.6496z" p-id="12847" fill="#e52522"/></svg>